<!-- Generated by IcoMoon.io -->
<svg version="1.1" xmlns="http://www.w3.org/2000/svg" width="32" height="32" viewBox="0 0 32 32">
<title>clients</title>
<path fill="#ffffff" d="M14.519 29.605c0.398 0.398 0.933 0.62 1.494 0.62 0.555 0 1.103-0.228 1.494-0.62l11.726-11.726c1.781-1.781 2.76-4.15 2.767-6.662 0-2.519-0.979-4.887-2.76-6.669s-4.144-2.76-6.662-2.76c-2.473 0-4.803 0.946-6.571 2.669-1.775-1.729-4.111-2.682-6.591-2.682-2.512 0-4.874 0.979-6.656 2.754-1.781 1.781-2.76 4.15-2.76 6.669 0 2.512 0.985 4.881 2.767 6.662l11.752 11.745zM3.896 5.664c1.475-1.475 3.439-2.29 5.527-2.29s4.059 0.816 5.54 2.297l0.483 0.483c0.15 0.15 0.352 0.235 0.568 0.235v0c0.209 0 0.418-0.085 0.568-0.235l0.47-0.47c1.481-1.481 3.445-2.297 5.54-2.297 2.088 0 4.052 0.816 5.527 2.29 1.481 1.481 2.29 3.445 2.29 5.533s-0.816 4.052-2.297 5.533l-11.732 11.732c-0.189 0.189-0.535 0.189-0.731 0l-11.745-11.745c-1.481-1.481-2.297-3.445-2.297-5.533s0.816-4.052 2.29-5.533z"></path>
</svg>
