<svg id="Слой_1" data-name="Слой 1" xmlns="http://www.w3.org/2000/svg" viewBox="0 0 796.3 796.5"><defs><style>.cls-1,.cls-2{fill:none;stroke:#000;stroke-width:2.9px;}.cls-1{stroke-miterlimit:10;}.cls-2{stroke-linecap:round;stroke-linejoin:round;}.cls-3{isolation:isolate;font-size:160px;font-family:PoiretOne-Regular, Poiret One;}</style></defs><title>лого kulygin design svg</title><path class="cls-1" d="M551.9,949.9a396.8,396.8,0,1,1,0-793.6A396.88,396.88,0,0,1,706.5,918.6,393,393,0,0,1,551.9,949.9Z" transform="translate(-153.75 -154.85)"/><path class="cls-2" d="M247,321.8c87.1-110.6,202.7-151.4,307.4-151.4" transform="translate(-153.75 -154.85)"/><path class="cls-1" d="M891.6,376.7C812.6,225.8,665,168.9,552,170.4" transform="translate(-153.75 -154.85)"/><line class="cls-2" x1="93.25" y1="166.95" x2="403.15" y2="166.95"/><line class="cls-1" x1="399.25" y1="395.55" x2="793.65" y2="395.55"/><path class="cls-2" d="M232.9,764.5c48.2,70.8,152.7,171.3,322.3,171.2" transform="translate(-153.75 -154.85)"/><path class="cls-1" d="M900.9,710.2C823.6,874.3,669.6,938.8,552.7,935.7" transform="translate(-153.75 -154.85)"/><line class="cls-2" x1="79.15" y1="609.65" x2="403.15" y2="609.65"/><rect x="114.35" y="413.65" width="163.3" height="163.3"/><text class="cls-3" transform="translate(44.67 361.62)">Kulygin</text><text class="cls-3" transform="translate(314.33 548.47)">Design</text></svg>