<?xml version="1.0" encoding="utf-8"?>
<!-- Generator: Adobe Illustrator 25.2.0, SVG Export Plug-In . SVG Version: 6.00 Build 0)  -->
<svg version="1.1" id="Слой_1" xmlns="http://www.w3.org/2000/svg" xmlns:xlink="http://www.w3.org/1999/xlink" x="0px" y="0px"
	 viewBox="0 0 477.4 107.7" style="enable-background:new 0 0 477.4 107.7;" xml:space="preserve">
<style type="text/css">
	.st0{fill:#FFFFFF;}
</style>
<rect x="1.1" y="0.3" width="476.2" height="107.7"/>
<path class="st0" d="M21.1,7.2"/>
<g>
	<g>
		<path class="st0" d="M27.2,52.9L12.3,4.3c-0.2-0.7-0.1-1.5,0.4-2.1c0.4-0.7,1.1-1,1.8-1c1.2,0,2,0.6,2.4,1.7l12.6,41l12.6-41
			c0.4-1.2,1.1-1.8,2.3-1.7c1.3,0,2,0.6,2.4,1.7l12.5,41l12.5-41c0.4-1.1,1.2-1.7,2.4-1.7c0.8,0,1.4,0.3,1.8,0.9s0.6,1.4,0.4,2.2
			L61.6,52.9c-0.4,1.1-1.2,1.7-2.4,1.7c-1.1,0-1.9-0.6-2.2-1.7L44.4,11.5L31.8,52.9c-0.4,1.1-1.2,1.7-2.4,1.7
			C28.3,54.5,27.5,54,27.2,52.9z"/>
		<path class="st0" d="M107,55.2c-7.6,0-14-2.7-19.4-8c-5.3-5.4-7.9-11.8-7.9-19.3S82.4,14,87.7,8.6c5.3-5.3,11.8-8,19.4-8
			c7.5,0,14,2.7,19.3,8c5.3,5.3,8,11.8,8,19.3c0,7.5-2.7,14-8,19.3C121,52.5,114.6,55.2,107,55.2z M122.9,43.8
			c4.4-4.4,6.6-9.7,6.6-15.9c0-6.2-2.2-11.5-6.6-15.9c-4.4-4.4-9.7-6.6-15.9-6.6c-6.2,0-11.5,2.2-15.9,6.6
			c-4.4,4.4-6.6,9.7-6.6,15.9c0,6.2,2.2,11.5,6.6,15.9c4.4,4.4,9.7,6.5,15.9,6.5C113.3,50.3,118.6,48.2,122.9,43.8z"/>
		<path class="st0" d="M181.3,3.6v48.6c0,0.7-0.2,1.2-0.7,1.7c-0.5,0.5-1.1,0.7-1.7,0.7c-0.8,0-1.4-0.3-1.9-1l-31.2-42.8v41.5
			c0,1-0.4,1.7-1.2,2.1c-0.8,0.4-1.6,0.4-2.4,0c-0.8-0.4-1.2-1.1-1.1-2.1V3.6c0-0.7,0.2-1.2,0.7-1.7c0.5-0.5,1-0.7,1.7-0.7
			c0.8,0,1.5,0.3,1.9,0.9l31.3,43V3.6c0-1,0.3-1.7,1.1-2.1c0.8-0.4,1.6-0.4,2.4,0C180.9,1.9,181.3,2.6,181.3,3.6z"/>
	</g>
</g>
<g>
	<g>
		<path class="st0" d="M84.3,90c0-0.5,0.2-1,0.5-1.4c0.4-0.4,0.8-0.6,1.3-0.6h5.7c2.6,0,4.9-0.9,6.7-2.8c1.9-1.9,2.8-4.1,2.8-6.8
			c0-2.7-0.9-4.9-2.8-6.8c-1.9-1.9-4.1-2.8-6.7-2.8H77.5v36.9c0,0.8-0.3,1.3-1,1.7c-0.7,0.3-1.3,0.3-2,0s-1-0.9-0.9-1.7V67
			c0-0.5,0.2-1,0.6-1.4c0.4-0.4,0.8-0.6,1.4-0.6h16.3c3.7,0,6.8,1.3,9.4,3.9c2.6,2.6,3.9,5.8,3.9,9.5c0,3.7-1.3,6.8-3.9,9.4
			c-2.6,2.6-5.8,3.9-9.4,3.9h-1.9l9.3,12.8c0.3,0.5,0.4,0.9,0.3,1.5s-0.3,0.9-0.8,1.2c-0.4,0.3-0.9,0.5-1.4,0.4
			c-0.5-0.1-1-0.3-1.3-0.8L84.8,91.3C84.5,90.9,84.3,90.5,84.3,90z"/>
		<path class="st0" d="M110.9,78.5V67c0-0.5,0.2-1,0.6-1.4c0.4-0.4,0.8-0.6,1.4-0.6h26.9c0.8,0,1.3,0.3,1.7,0.9s0.3,1.3,0,2
			s-0.9,1-1.7,0.9h-24.9v9.6c0,0.8-0.3,1.3-1,1.7c-0.7,0.3-1.3,0.3-2,0C111.2,79.8,110.9,79.2,110.9,78.5z M110.9,105.3V86.2
			c0-0.5,0.2-1,0.6-1.4c0.4-0.4,0.8-0.6,1.4-0.6h23c0.8,0,1.3,0.3,1.7,1s0.3,1.3,0,2s-0.9,1-1.7,0.9h-21v15.2h24.9
			c0.5,0,1,0.3,1.4,0.7c0.4,0.4,0.6,0.8,0.6,1.3c0,0.5-0.2,1-0.6,1.4c-0.4,0.4-0.8,0.6-1.4,0.6h-26.9c-0.5,0-1-0.2-1.4-0.6
			C111.1,106.3,110.9,105.9,110.9,105.3z"/>
		<path class="st0" d="M179.6,66.5v39.3c0,0.5-0.2,1-0.6,1.4c-0.4,0.4-0.8,0.6-1.4,0.6c-0.6,0-1.2-0.3-1.6-0.8l-25.2-34.6v33.5
			c0,0.8-0.3,1.3-1,1.7c-0.7,0.3-1.3,0.3-2,0c-0.7-0.3-1-0.9-0.9-1.7V66.5c0-0.5,0.2-1,0.6-1.4c0.4-0.4,0.8-0.6,1.4-0.6
			c0.7,0,1.2,0.2,1.6,0.7l25.3,34.7V66.5c0-0.8,0.3-1.3,0.9-1.7c0.7-0.3,1.3-0.3,2,0C179.3,65.2,179.6,65.8,179.6,66.5z"/>
	</g>
</g>
<g>
	<g>
		<path class="st0" d="M189,102.8V6.7c0-1.3,0.5-2.4,1.4-3.3s2-1.4,3.3-1.4h30.9c14.4,0,26.7,5.1,36.9,15.3
			c10.2,10.2,15.3,22.5,15.3,36.9s-5.1,26.7-15.3,36.9c-10.2,10.2-22.5,15.3-36.9,15.3h-13c-1.9,0.1-3.3-0.7-4.1-2.3
			c-0.8-1.6-0.8-3.3,0-4.9c0.8-1.6,2.2-2.4,4.1-2.3h13c11.8,0,21.9-4.2,30.2-12.5c8.4-8.4,12.5-18.4,12.5-30.2
			c0-11.8-4.2-21.9-12.5-30.2c-8.3-8.4-18.3-12.5-30.2-12.5h-26v91.4c0.1,1.9-0.7,3.3-2.3,4.1c-1.6,0.8-3.3,0.8-4.9,0
			C189.8,106.1,189,104.7,189,102.8z"/>
		<path class="st0" d="M290.1,35.1V6.7c0-1.3,0.5-2.4,1.4-3.3c0.9-0.9,2-1.4,3.3-1.4h66.6c1.9-0.1,3.3,0.7,4.1,2.3
			c0.8,1.6,0.8,3.3,0,4.9c-0.8,1.6-2.2,2.4-4.1,2.3h-61.7v23.7c0,1.9-0.8,3.3-2.4,4.1c-1.6,0.8-3.3,0.8-4.9,0
			C290.8,38.4,290,37.1,290.1,35.1z M290.1,101.7V54.3c0-1.3,0.5-2.4,1.4-3.4c0.9-1,2-1.5,3.3-1.5h57c1.9,0,3.3,0.8,4.1,2.4
			c0.8,1.6,0.8,3.3,0,4.9c-0.8,1.6-2.2,2.4-4.1,2.3h-52.1v37.7h61.7c1.3,0.1,2.4,0.6,3.3,1.6c0.9,1,1.4,2.1,1.4,3.3
			c0,1.3-0.5,2.4-1.4,3.3c-0.9,0.9-2,1.4-3.3,1.4h-66.6c-1.3,0-2.4-0.5-3.3-1.4C290.6,104.1,290.1,103,290.1,101.7z"/>
		<path class="st0" d="M405.9,63.8c0-1.3,0.4-2.4,1.3-3.3c0.9-0.9,2-1.4,3.3-1.4h14.2c6.5,0,12.1-2.3,16.7-7c4.6-4.6,7-10.3,7-16.8
			s-2.3-12.2-7-16.8c-4.6-4.6-10.2-7-16.7-7H389v91.4c0,1.9-0.8,3.3-2.4,4.1c-1.6,0.8-3.3,0.8-4.9,0c-1.6-0.8-2.4-2.2-2.3-4.1V6.7
			c0-1.3,0.5-2.4,1.5-3.3S383,2,384.3,2h40.4c9.1,0,16.9,3.3,23.4,9.8s9.8,14.3,9.8,23.5c0,9.1-3.3,16.9-9.8,23.4
			c-6.5,6.5-14.3,9.8-23.4,9.8h-4.6l23,31.6c0.7,1.1,1,2.3,0.8,3.6c-0.2,1.3-0.9,2.3-1.9,3.1c-1,0.8-2.2,1.1-3.5,0.9
			c-1.3-0.2-2.4-0.9-3.2-1.9L407,67C406.2,66,405.9,64.9,405.9,63.8z"/>
	</g>
</g>
</svg>
